<svg width="1201" height="364" viewBox="0 0 1201 364" fill="none" xmlns="http://www.w3.org/2000/svg">
<path d="M68.9 11.3L97.8 0L109.5 30.4L82.2 41.4C67.4 47.3 61.2 55.4 61.2 75V87H107.5V116.7H61.1V286H27.3V116.7H0V87H27.3V70.2C27.3 41.7 39.3 23 68.9 11.3Z" fill="black"/>
<path d="M195.9 257.5H185.4L116.8 87H154.2L207.6 226.7L260.2 87H294.5L189.3 364H155.8L195.9 257.5Z" fill="black"/>
<path d="M323.7 86.9998H357.6V142C367.3 104.9 389.2 84.5998 421.1 84.2998V121.4C389.2 118.7 357.6 141.7 357.6 193.6V286H323.7V86.9998Z" fill="black"/>
<path d="M520.3 290.7C468.9 290.7 433.4 249.3 433.4 186.9C433.4 124.1 469.2 83.1001 519.9 83.1001C556.1 83.1001 583.4 103.4 595.1 135.8V87.0001H629V364H595.1V238C583.4 270.4 556.2 290.7 520.3 290.7ZM531.3 260.2C570.6 260.2 595.2 228.2 595.2 196.2V177.9C595.2 145.1 570.3 113.1 531.3 113.1C495.5 113.1 469 140 469 186.1C468.9 232.5 495 260.2 531.3 260.2Z" fill="black"/>
<path d="M907.9 86.9998H941.8V132.6C951.5 102.2 974.5 82.2998 1010 82.2998C1043.5 82.2998 1065.3 102.2 1070 135C1079.3 103.8 1102.7 82.2998 1138.9 82.2998C1177.8 82.2998 1200.1 108.1 1200.1 149V286H1166.2V161.5C1166.2 130.3 1152.6 112.7 1125.7 112.7C1093.4 112.7 1071.2 138.1 1071.2 171.6V286H1037.3V161.5C1037.3 130.3 1023.7 112.7 996.8 112.7C964.5 112.7 941.9 138.1 941.9 171.6V286H908V86.9998H907.9Z" fill="black"/>
<path d="M848 138.6C840.4 120.4 825.5 105.9 807.2 98.6998L818.4 69.7998C844.5 79.9998 865.7 100.7 876.5 126.6L848 138.6Z" fill="#00FFE7"/>
<path d="M762.8 288.5C705.7 288.5 659.2 241.9 659.2 184.7C659.2 127.5 705.7 80.8999 762.8 80.8999C771.7 80.8999 780.5 81.9999 789 84.1999L781.2 114.2C775.2 112.6 769 111.9 762.8 111.9C722.7 111.9 690.1 144.6 690.1 184.8C690.1 225 722.7 257.7 762.8 257.7C802.9 257.7 835.5 225 835.5 184.8C835.5 177.9 834.6 171.2 832.7 164.7L862.4 156.2C865.1 165.5 866.4 175.1 866.4 184.9C866.5 241.9 820 288.5 762.8 288.5Z" fill="black"/>
</svg>
