<svg xmlns="http://www.w3.org/2000/svg" fill="none" viewBox="0 0 1683 1030" height="1030" width="1683">
<path fill="#3D3645" d="M129.366 665.867L1.23993 376.551H34.3046L154.164 648.922H135.978L256.665 376.551H287.663L159.537 665.867H129.366ZM322.242 665.867V448.88H351.587V665.867H322.242ZM337.121 400.936C331.059 400.936 325.961 398.87 321.828 394.737C317.695 390.604 315.629 385.644 315.629 379.858C315.629 374.071 317.695 369.249 321.828 365.392C325.961 361.259 331.059 359.192 337.121 359.192C343.183 359.192 348.28 361.121 352.413 364.979C356.546 368.836 358.613 373.658 358.613 379.444C358.613 385.506 356.546 390.604 352.413 394.737C348.556 398.87 343.458 400.936 337.121 400.936ZM489.034 665.867L392.733 448.88H423.318L511.766 650.161H497.3L586.988 448.88H615.92L519.206 665.867H489.034ZM786.768 665.867V617.923L785.528 610.071V529.889C785.528 511.428 780.293 497.237 769.822 487.318C759.627 477.399 744.335 472.439 723.945 472.439C709.893 472.439 696.529 474.781 683.854 479.465C671.179 484.149 660.433 490.349 651.616 498.064L638.39 476.159C649.412 466.79 662.638 459.626 678.068 454.667C693.498 449.431 709.755 446.814 726.838 446.814C754.943 446.814 776.573 453.84 791.728 467.892C807.158 481.669 814.873 502.748 814.873 531.129V665.867H786.768ZM711.959 667.934C695.702 667.934 681.512 665.316 669.388 660.081C657.54 654.57 648.448 647.131 642.11 637.762C635.773 628.118 632.604 617.097 632.604 604.698C632.604 593.4 635.222 583.206 640.457 574.113C645.968 564.744 654.785 557.305 666.909 551.794C679.308 546.008 695.84 543.115 716.506 543.115H791.314V565.02H717.332C696.391 565.02 681.788 568.74 673.522 576.179C665.531 583.619 661.536 592.849 661.536 603.871C661.536 616.27 666.358 626.19 676.001 633.629C685.645 641.069 699.147 644.788 716.506 644.788C733.038 644.788 747.228 641.069 759.076 633.629C771.2 625.914 780.017 614.892 785.528 600.564L792.141 620.817C786.63 635.145 776.986 646.579 763.209 655.121C749.708 663.663 732.625 667.934 711.959 667.934Z"></path>
<path fill="#AD90CB" d="M903.617 674.416C879.77 674.416 867.847 660.623 867.847 633.036C867.847 615.735 871.587 596.798 879.069 576.225C886.55 555.651 896.135 534.376 907.825 512.4C919.982 489.956 932.84 468.447 946.4 447.874C960.428 426.833 973.754 407.896 986.378 391.063C999.471 373.762 1010.93 359.267 1020.75 347.578C1030.56 335.888 1037.11 328.641 1040.38 325.835C1024.49 325.835 1013.26 324.9 1006.72 323.03C1000.17 320.692 996.899 318.12 996.899 315.315C996.899 311.106 1000.87 307.833 1008.82 305.495C1017.24 302.69 1027.99 300.352 1041.09 298.482C1058.85 296.144 1077.32 294.507 1096.49 293.572C1115.66 292.637 1132.96 292.169 1148.39 292.169C1164.29 291.702 1175.51 291.468 1182.06 291.468C1199.83 291.468 1210.58 294.273 1214.32 299.884C1218.06 305.495 1219.93 312.977 1219.93 322.328C1216.66 321.393 1210.58 320.692 1201.7 320.224C1192.82 319.757 1183.23 319.523 1172.94 319.523C1165.46 319.523 1157.98 319.523 1150.5 319.523C1143.02 319.523 1136 319.99 1129.46 320.926C1115.43 321.861 1102.57 323.731 1090.88 326.536C1079.66 328.874 1068.2 334.719 1056.52 344.071C1045.29 353.422 1032.43 369.086 1017.94 391.063C1009.52 403.687 1001.11 416.546 992.691 429.638C984.274 442.263 976.793 453.952 970.247 464.707C964.168 474.993 959.96 482.942 957.622 488.553C965.571 487.15 977.962 485.514 994.795 483.644C1012.1 481.306 1028.69 480.137 1044.59 480.137C1059.55 480.137 1071.95 481.773 1081.76 485.046C1091.58 487.852 1094.62 493.229 1090.88 501.178C1087.14 501.178 1078.49 501.412 1064.93 501.879C1051.37 502.347 1036.41 503.048 1020.04 503.983C1004.15 504.451 989.418 505.152 975.858 506.087C962.298 507.023 953.648 507.958 949.907 508.893C947.569 513.569 943.361 522.453 937.282 535.545C931.671 548.637 926.294 564.301 921.151 582.537C916.943 596.097 913.202 610.825 909.929 626.723C906.656 642.153 904.552 658.051 903.617 674.416ZM1149.05 676.521C1131.75 676.521 1117.96 671.611 1107.67 661.792C1097.38 651.505 1092.24 637.244 1092.24 619.008C1092.24 604.981 1094.81 590.252 1099.96 574.822C1105.57 559.392 1110.94 547.235 1116.09 538.35C1126.84 518.712 1139.7 500.71 1154.66 484.345C1170.09 467.98 1185.76 454.887 1201.66 445.068C1218.02 434.781 1232.98 429.638 1246.54 429.638C1259.17 429.638 1269.92 433.145 1278.81 440.159C1288.16 447.172 1292.83 456.524 1292.83 468.213C1292.83 472.889 1291.66 478.266 1289.33 484.345C1286.99 490.423 1283.25 496.736 1278.1 503.282C1259.4 527.129 1238.59 545.832 1215.68 559.392C1193.24 572.484 1167.52 582.303 1138.53 588.849C1136.66 594.928 1135.03 601.006 1133.62 607.085C1132.22 612.696 1131.05 618.073 1130.12 623.216C1129.65 625.554 1129.18 627.892 1128.71 630.23C1128.71 632.1 1128.71 634.205 1128.71 636.542C1128.71 645.894 1130.82 652.674 1135.03 656.882C1139.7 660.623 1145.31 662.493 1151.86 662.493C1162.14 662.493 1173.13 659.921 1184.82 654.778C1196.51 649.167 1207.5 642.855 1217.79 635.841C1228.07 628.827 1235.79 623.216 1240.93 619.008C1246.08 614.332 1250.99 609.657 1255.66 604.981C1260.8 599.837 1266.42 594.226 1272.49 588.148C1277.17 583.004 1281.61 578.095 1285.82 573.419C1290.03 568.276 1294 563.132 1297.74 557.989C1299.15 556.586 1300.31 555.885 1301.25 555.885C1304.06 555.885 1305.46 557.989 1305.46 562.197C1305.46 564.535 1304.52 566.639 1302.65 568.509C1294.24 578.796 1285.82 589.083 1277.4 599.37C1268.99 609.189 1260.34 618.774 1251.45 628.126C1241.17 638.88 1226.9 649.635 1208.67 660.389C1190.9 671.143 1171.03 676.521 1149.05 676.521ZM1142.74 579.731C1154.9 574.588 1168.92 567.107 1184.82 557.288C1201.19 547.468 1216.85 535.779 1231.81 522.219C1247.24 508.192 1259.87 493.229 1269.69 477.331C1272.96 472.188 1274.6 467.512 1274.6 463.304C1274.6 456.758 1270.86 453.485 1263.38 453.485C1258.23 453.485 1251.92 455.355 1244.44 459.096C1221.06 471.72 1200.95 488.787 1184.12 510.296C1167.29 531.804 1153.49 554.95 1142.74 579.731ZM1246.16 670.208C1266.27 632.802 1282.87 596.798 1295.96 562.197C1309.52 527.129 1324.95 491.826 1342.25 456.29C1347.4 446.938 1353.94 440.626 1361.89 437.353C1369.84 433.612 1377.56 431.742 1385.04 431.742C1391.11 431.742 1396.49 432.443 1401.17 433.846C1399.77 437.119 1396.02 443.665 1389.95 453.485C1384.34 462.836 1378.26 473.591 1371.71 485.748C1367.03 494.164 1360.02 507.256 1350.67 525.024C1341.32 542.325 1332.67 560.327 1324.72 579.03C1328.93 572.951 1335.24 564.535 1343.66 553.781C1352.54 542.559 1362.36 530.635 1373.11 518.011C1384.34 505.386 1395.79 493.463 1407.48 482.241C1419.17 471.019 1430.63 461.901 1441.85 454.887C1453.07 447.406 1463.12 443.665 1472.01 443.665C1481.36 443.665 1487.67 446.237 1490.94 451.381C1494.68 456.056 1496.55 461.667 1496.55 468.213C1496.55 476.63 1493.28 486.215 1486.74 496.97C1480.66 507.256 1474.34 518.946 1467.8 532.038C1464.06 539.052 1459.38 547.468 1453.77 557.288C1448.63 566.639 1443.48 575.991 1438.34 585.342C1433.66 594.226 1429.92 601.708 1427.12 607.786C1431.79 598.902 1438.81 587.68 1448.16 574.12C1457.51 560.093 1468.27 545.832 1480.42 531.337C1493.05 516.374 1505.91 502.347 1519 489.255C1532.09 475.695 1544.72 464.94 1556.87 456.991C1569.5 448.575 1580.49 444.367 1589.84 444.367C1599.19 444.367 1605.5 446.705 1608.77 451.381C1612.51 456.056 1614.38 461.667 1614.38 468.213C1614.38 477.097 1611.35 487.618 1605.27 499.775C1599.66 511.932 1592.41 524.323 1583.52 536.948C1575.11 549.572 1566.69 561.73 1558.28 573.419C1550.33 585.109 1544.01 595.395 1539.34 604.279C1532.79 617.372 1529.52 627.425 1529.52 634.438C1529.52 641.92 1532.56 645.66 1538.64 645.66C1543.78 645.66 1549.39 643.79 1555.47 640.049C1566.22 634.906 1576.74 627.658 1587.03 618.307C1597.32 608.488 1606.9 598.201 1615.79 587.446C1620.46 581.835 1625.37 576.225 1630.52 570.614C1636.13 564.535 1639.87 560.327 1641.74 557.989C1642.67 556.586 1643.84 555.885 1645.25 555.885C1648.05 555.885 1649.45 557.755 1649.45 561.496C1649.45 563.834 1648.28 566.172 1645.95 568.509C1641.27 574.588 1636.36 580.9 1631.22 587.446C1626.07 593.525 1620.7 599.604 1615.09 605.682C1610.41 611.761 1605.27 617.839 1599.66 623.918C1594.51 629.529 1588.9 634.906 1582.82 640.049C1562.72 658.753 1544.01 668.104 1526.71 668.104C1516.89 668.104 1509.88 665.299 1505.67 659.688C1501.46 653.609 1499.36 646.128 1499.36 637.244C1499.36 625.087 1502.4 611.059 1508.48 595.162C1515.02 578.796 1522.74 563.366 1531.62 548.871C1532.56 547.468 1535.6 543.026 1540.74 535.545C1545.88 528.064 1551.5 519.413 1557.57 509.594C1563.65 499.775 1569.03 490.423 1573.71 481.539C1578.38 472.655 1580.72 466.343 1580.72 462.602C1580.72 459.329 1578.61 458.394 1574.41 459.797C1570.67 461.2 1564.12 465.876 1554.77 473.824C1543.55 483.644 1530.92 496.034 1516.89 510.997C1502.87 525.96 1488.61 542.559 1474.11 560.794C1460.08 578.562 1447.46 597.499 1436.24 617.605C1433.9 622.281 1430.63 626.957 1426.42 631.633C1422.21 636.309 1416.6 638.647 1409.58 638.647H1407.48C1404.67 638.647 1401.4 637.711 1397.66 635.841C1394.39 633.971 1392.75 629.763 1392.75 623.216C1392.75 611.527 1396.49 597.733 1403.97 581.835C1411.45 565.938 1420.1 549.806 1429.92 533.441C1439.74 516.608 1448.16 501.412 1455.17 487.852C1457.51 482.708 1459.38 478.033 1460.78 473.824C1462.65 469.616 1463.59 466.343 1463.59 464.005C1463.59 460.265 1461.49 459.096 1457.28 460.498C1453.54 461.433 1446.99 465.876 1437.64 473.824C1426.42 483.176 1413.56 495.567 1399.06 510.997C1385.04 526.427 1370.78 543.026 1356.28 560.794C1341.79 578.562 1328.46 596.097 1316.3 613.397C1304.14 630.23 1294.79 644.959 1288.25 657.584C1286.38 661.792 1283.81 664.363 1280.53 665.299C1277.73 665.766 1273.05 666.234 1266.5 666.701C1261.83 666.701 1258.09 666.701 1255.28 666.701C1252.48 667.169 1249.44 668.338 1246.16 670.208Z"></path>
</svg>
